HIERARCHY
ROOT Hips
{
	OFFSET -0.179506 -22.333345 2.821913
	CHANNELS 6 Xposition Yposition Zposition Zrotation Yrotation Xrotation 
	JOINT LeftUpLeg
	{
		OFFSET 6.951974 -9.140623 -0.681533
		CHANNELS 3 Zrotation Yrotation Xrotation
		JOINT LeftLeg
		{
			OFFSET 3.427654 -37.519855 -0.449580
			CHANNELS 3 Zrotation Yrotation Xrotation
			JOINT LeftFoot
			{
				OFFSET -1.359570 -39.796059 -4.369333
				CHANNELS 3 Zrotation Yrotation Xrotation
				JOINT LeftToe
				{
					OFFSET 2.635814 -5.579078 11.928840
					CHANNELS 3 Zrotation Yrotation Xrotation
					End Site
					{
						OFFSET 0.000000 0.000000 0.000000
					}
				}
			}
		}
	}
	JOINT RightUpLeg
	{
		OFFSET -6.767048 -9.052170 -0.431982
		CHANNELS 3 Zrotation Yrotation Xrotation
		JOINT RightLeg
		{
			OFFSET -3.829005 -38.256897 -0.885003
			CHANNELS 3 Zrotation Yrotation Xrotation
			JOINT RightFoot
			{
				OFFSET 1.577377 -39.841461 -4.231180
				CHANNELS 3 Zrotation Yrotation Xrotation
				JOINT RightToe
				{
					OFFSET -2.537174 -4.814398 12.334795
					CHANNELS 3 Zrotation Yrotation Xrotation
					End Site
					{
						OFFSET 0.000000 0.000000 0.000000
					}
				}
			}
		}
	}
	JOINT Spine
	{
		OFFSET -0.253288 10.896323 -2.669631
		CHANNELS 3 Zrotation Yrotation Xrotation
		JOINT Spine1
		{
			OFFSET 0.548704 13.518043 0.109247
			CHANNELS 3 Zrotation Yrotation Xrotation
			JOINT Spine2
			{
				OFFSET 0.145701 5.292222 2.542457
				CHANNELS 3 Zrotation Yrotation Xrotation
				JOINT Neck
				{
					OFFSET -0.277840 21.387037 -4.285703
					CHANNELS 3 Zrotation Yrotation Xrotation
					JOINT Head
					{
						OFFSET 0.515184 6.496960 5.134897
						CHANNELS 3 Zrotation Yrotation Xrotation
						End Site
						{
							OFFSET 0.000000 0.000000 0.000000
						}
					}
				}
				JOINT LeftShoulder
				{
					OFFSET 7.884473 12.174932 -3.408961
					CHANNELS 3 Zrotation Yrotation Xrotation
					JOINT LeftArm
					{
						OFFSET 9.097692 3.046888 -0.886815
						CHANNELS 3 Zrotation Yrotation Xrotation
						JOINT LeftForeArm
						{
							OFFSET 25.961220 -1.277207 -2.745643
							CHANNELS 3 Zrotation Yrotation Xrotation
							JOINT LeftHand
							{
								OFFSET 24.923361 0.898606 -0.117091
								CHANNELS 3 Zrotation Yrotation Xrotation
								End Site
								{
									OFFSET 0.000000 0.000000 0.000000
								}
							}
						}
					}
				}
				JOINT RightShoulder
				{
					OFFSET -8.175920 11.883285 -3.861528
					CHANNELS 3 Zrotation Yrotation Xrotation
					JOINT RightArm
					{
						OFFSET -9.601238 3.255117 -0.914307
						CHANNELS 3 Zrotation Yrotation Xrotation
						JOINT RightForeArm
						{
							OFFSET -25.374195 -1.332924 -2.140099
							CHANNELS 3 Zrotation Yrotation Xrotation
							JOINT RightHand
							{
								OFFSET -25.529810 0.777228 -0.555919
								CHANNELS 3 Zrotation Yrotation Xrotation
								End Site
								{
									OFFSET 0.000000 0.000000 0.000000
								}
							}
						}
					}
				}
			}
		}
	}
}
MOTION
Frames: 10
Frame Time: 0.033333
-26.953436 115.325485 -6.374214 178.818968 56.180305 -179.174539 -3.016683 2.441989 -8.165682 -2.718233 5.398099 10.616121 7.297200 23.356349 -10.439767 1.060817 -1.052641 0.177097 -8.824743 4.118730 -17.560173 2.615241 8.892042 20.539375 3.628884 -8.244703 -0.613901 3.735859 0.375981 -0.390792 4.599422 -7.376774 20.365028 11.948976 -8.189915 -0.935679 5.831973 -6.114117 9.649714 -2.988424 13.830980 12.535564 2.269570 19.576213 -5.329239 13.016647 -26.046818 -8.761982 -63.480498 -44.120774 26.499148 -13.418066 -34.888388 22.766876 7.821946 -8.636114 -13.626357 -1.688545 5.114890 0.064576 52.257739 -3.251405 10.408598 0.264978 17.493014 -2.864642 -7.699460 3.832808 -14.766467 
-27.152399 115.225006 -6.264490 178.997104 57.837137 -178.272839 -2.823143 2.583967 -9.397102 -2.772596 6.380243 11.261582 7.392894 23.517776 -10.496028 1.015260 -1.145998 0.350106 -8.926545 4.516656 -18.938377 2.975124 9.473940 20.482322 3.794143 -7.467675 -0.429400 3.736069 0.174966 -0.386814 4.332573 -7.614024 21.304642 12.158137 -8.376541 -0.908076 5.831790 -6.143260 9.737580 -3.569954 14.476359 12.769933 1.846685 19.479560 -6.527277 14.805039 -26.995587 -9.389800 -63.638493 -44.849224 26.152921 -13.457703 -33.958433 22.086180 7.891413 -8.355094 -14.231729 -2.968958 6.126371 -0.012208 53.598090 -2.384433 10.528326 0.307735 19.068228 -2.463327 -7.370825 3.881032 -15.787361 
-27.627270 115.151855 -5.685452 178.773121 59.113219 -178.199835 -2.705130 2.839233 -10.232268 -2.858655 7.141444 11.509228 7.443186 23.547234 -10.292406 0.944807 -1.139126 0.511882 -9.025557 4.889344 -19.919983 3.259256 10.232493 20.272512 3.770040 -6.990090 -0.033643 3.674680 0.136041 -0.458259 4.140725 -7.784490 22.309864 12.243558 -8.541849 -0.763019 5.697895 -6.065869 9.765842 -4.194761 14.855875 12.621193 1.457059 19.401386 -7.369242 16.596726 -27.841287 -10.240283 -63.181725 -45.613806 25.395319 -13.702763 -33.052058 21.775838 7.976450 -8.274064 -14.227882 -4.196011 7.076230 -0.235071 54.527877 -1.743231 10.778983 0.671847 20.689975 -1.719947 -7.071554 3.937780 -16.479040 
-27.475880 115.096207 -5.566676 178.796217 60.361785 -177.549119 -2.509000 2.959459 -10.988210 -2.831146 7.987367 11.859995 7.604649 23.501261 -10.153034 0.921753 -1.122529 0.698941 -9.034904 5.411266 -20.848648 3.459272 10.660701 20.224783 3.786560 -6.475928 -0.045805 3.602257 0.100999 -0.435427 3.955864 -8.051061 23.242231 12.210946 -8.610148 -0.681582 5.599466 -6.002387 9.765758 -4.713935 15.758788 12.717380 1.092866 19.750907 -8.095377 18.084666 -28.368435 -10.946479 -62.677423 -45.930639 24.674934 -14.075759 -32.529270 22.117570 8.372513 -8.335903 -14.270063 -5.155544 7.818228 -0.321331 55.520825 -0.952962 10.728990 0.636662 22.403457 -1.575383 -7.356750 4.099034 -17.466259 
-27.538801 115.063416 -5.565660 179.192743 61.527522 -176.788733 -2.306844 3.148709 -11.600472 -2.765454 8.629902 12.194722 7.650520 23.645331 -10.134389 0.917738 -1.167755 0.779736 -8.934692 5.879008 -21.603474 3.648724 11.261247 20.204848 3.973069 -6.053270 0.169557 3.516980 0.053672 -0.463578 3.836136 -8.245965 24.033219 12.191222 -8.758282 -0.641864 5.513804 -6.007231 9.805125 -4.913273 16.524695 12.876490 0.803213 20.314907 -8.609539 19.301240 -28.881780 -11.645990 -61.951009 -46.459988 23.875274 -14.348257 -32.297717 22.191227 8.523361 -8.129799 -14.354008 -5.945871 8.463214 -0.452283 56.154996 -0.209680 10.759885 0.643772 23.861341 -1.496583 -7.370649 4.112583 -18.196297 
-27.555521 115.052063 -5.266331 179.349598 62.078785 -176.418160 -2.023733 3.248264 -12.084648 -2.766320 8.852714 12.480983 7.553076 23.642207 -9.966868 0.891633 -1.196765 0.827391 -8.805168 6.155152 -21.982123 3.799561 11.579095 20.008258 3.964167 -5.850101 0.241419 3.536298 -0.024480 -0.447931 3.726427 -8.332722 24.385974 12.112628 -8.815394 -0.666454 5.421237 -6.002463 9.903109 -5.166342 17.007409 13.021424 0.506794 20.570206 -9.388189 20.254101 -29.256212 -12.253593 -61.998595 -47.055288 23.773383 -14.439218 -32.005409 22.111378 8.398289 -8.129682 -14.359712 -6.503107 8.882953 -0.639455 56.652060 0.281680 10.775041 0.538920 24.409995 -1.938552 -7.650282 4.055947 -18.817617 
-27.415699 115.059357 -5.063608 179.451978 62.489705 -176.218252 -1.804093 3.328950 -12.293699 -2.737313 8.824737 12.728858 7.483116 23.682217 -9.805190 0.922313 -1.212402 0.785122 -8.640582 6.395874 -22.135371 3.884921 11.782038 19.962955 3.856441 -5.669707 0.154846 3.507234 -0.034295 -0.470448 3.668135 -8.441971 24.704828 12.087490 -8.834069 -0.694310 5.314106 -5.993668 9.918702 -5.423200 17.331763 13.002581 0.260557 20.406518 -9.940007 20.804130 -29.274774 -12.584159 -61.521962 -47.331181 23.448479 -14.743569 -32.448878 22.495668 8.306793 -8.114780 -14.358258 -6.788464 9.069945 -0.739528 56.884421 0.348720 10.723296 0.617353 24.963465 -1.853667 -7.600442 4.011511 -19.316057 
-27.276415 115.081039 -4.672462 179.329650 62.580183 -176.581440 -1.580997 3.363050 -12.185787 -2.718808 8.506523 12.981000 7.260651 23.755916 -9.641844 0.986384 -1.231459 0.704602 -8.421667 6.566764 -21.981401 3.966864 11.866242 20.140402 3.630925 -5.623409 -0.065639 3.522906 -0.014172 -0.510188 3.652521 -8.515952 24.825929 12.016777 -8.888963 -0.662788 5.239772 -6.029637 9.897633 -5.572378 17.530148 12.932954 0.036901 20.146712 -10.355505 20.891474 -29.243015 -12.678687 -61.010437 -47.603453 23.100789 -14.662967 -32.648359 22.497221 8.209147 -8.191126 -14.225854 -6.832242 9.054454 -0.788220 56.983718 0.184962 10.649840 0.572274 24.971888 -1.855895 -7.626805 3.929242 -19.759510 
-26.976345 115.119751 -4.240083 179.115240 62.274877 -177.077560 -1.347913 3.314720 -11.958551 -2.690884 7.913416 13.217212 6.886749 23.791363 -9.500785 1.043321 -1.255727 0.593534 -8.148280 6.632593 -21.549079 3.993876 11.874781 20.253139 3.291456 -5.749521 -0.487072 3.580650 0.002481 -0.539150 3.674203 -8.539514 24.642552 11.912666 -8.872544 -0.697610 5.194347 -6.057188 9.875935 -5.717052 17.658273 12.810526 -0.098300 19.889263 -10.704388 20.632401 -29.116807 -12.548468 -60.671244 -47.759926 22.923739 -14.439893 -33.028585 22.346299 8.117543 -8.404448 -14.185920 -6.626030 8.832755 -0.677737 56.846192 -0.276193 10.461863 0.496877 24.283951 -1.983236 -7.749528 3.937543 -19.997088 
-26.591921 115.180710 -3.720442 178.664528 61.607800 -177.994994 -1.188796 3.251699 -11.400769 -2.664963 7.051537 13.256307 6.546653 23.704690 -9.230336 1.145606 -1.243309 0.429390 -7.897806 6.677444 -20.866700 4.054925 11.899189 20.544820 2.779945 -6.121141 -0.992641 3.627265 0.050063 -0.520297 3.721835 -8.560703 24.284198 11.842364 -8.906688 -0.653582 5.157827 -6.109191 9.831272 -5.894688 17.501655 12.534158 -0.285714 19.211935 -10.996312 20.109786 -28.884603 -12.286648 -60.052613 -47.824988 22.564207 -14.304292 -33.369293 22.400594 8.132300 -8.605495 -13.858657 -6.140728 8.417031 -0.621141 56.506172 -1.024733 10.270255 0.444042 23.315962 -1.935617 -8.017979 3.843836 -19.850722 
